<?xml version="1.0" encoding="utf-8"?>
<!DOCTYPE svg PUBLIC "-//W3C//DTD SVG 1.1//EN" "http://www.w3.org/Graphics/SVG/1.1/DTD/svg11.dtd">
<svg version="1.1" id="Layer_1" xmlns="http://www.w3.org/2000/svg" xmlns:xlink="http://www.w3.org/1999/xlink" x="0px" y="0px"
	 viewBox="0 0 1600 1600" enable-background="new 0 0 1600 1600" xml:space="preserve">
<g>
	<g>
		<g>
			<path d="M757.3914,1539.3186C768.2192,1539.5582,777,1539.5,777,1539.5s-8.7924,0.0262-19.6328-0.2528
				c-10.8404-0.2794-19.6141-0.7269-19.6105-0.6868C737.7768,1538.598,746.5631,1539.0786,757.3914,1539.3186z"/>
			<path d="M758.2867,1539.6694C768.6236,1539.7153,777,1539.5,777,1539.5s-8.5029,0.1846-18.9943,0.1008
				c-10.4941-0.0842-18.8827-0.3751-18.7324-0.3363C739.4316,1539.3016,747.9467,1539.6232,758.2867,1539.6694z"/>
			<path d="M760.4182,1539.9928C769.5809,1539.86,777,1539.5,777,1539.5s-7.6523,0.3325-17.1014,0.4314
				c-9.4534,0.0984-16.8965-0.0471-16.6135-0.0128C743.5749,1539.9521,751.2511,1540.1251,760.4182,1539.9928z"/>
			<path d="M763.6461,1540.2671C771.0285,1539.9825,777,1539.5,777,1539.5s-6.2961,0.4602-14.0779,0.717
				c-7.7849,0.2565-13.7867,0.2344-13.3898,0.2622C749.9349,1540.5067,756.2615,1540.5511,763.6461,1540.2671z"/>
			<path d="M767.7582,1540.4741c5.114-0.3993,9.2418-0.9741,9.2418-0.9741s-4.5228,0.5592-10.1226,0.9388
				c-5.597,0.379-9.7574,0.4504-9.2726,0.4701C758.0936,1540.9283,762.649,1540.8727,767.7582,1540.4741z"/>
			<path d="M772.4826,1540.6003C774.9943,1540.1288,777,1539.5,777,1539.5s-2.4465,0.6217-5.4967,1.082
				c-3.0322,0.4572-5.0757,0.5867-4.5351,0.5969C767.5108,1541.1888,769.9948,1541.0667,772.4826,1540.6003z"/>
			<path d="M777.5064,1540.6371C777.1926,1540.0892,777,1539.5,777,1539.5s-0.1926,0.5892-0.5064,1.1371
				c-0.2477,0.4325-0.0538,0.6338,0.5064,0.6339C777.5602,1541.2709,777.7541,1541.0696,777.5064,1540.6371z"/>
			<path d="M782.4967,1540.582c-3.0502-0.4603-5.4967-1.082-5.4967-1.082s2.0057,0.6288,4.5174,1.1003
				c2.4879,0.4663,4.9718,0.5885,5.5144,0.5786C787.5724,1541.1687,785.5289,1541.0392,782.4967,1540.582z"/>
			<path d="M787.1226,1540.4388C781.5228,1540.0592,777,1539.5,777,1539.5s4.1279,0.5748,9.2418,0.9741
				c5.1092,0.3986,9.6646,0.4542,10.1534,0.4348C796.8801,1540.8893,792.7197,1540.8179,787.1226,1540.4388z"/>
			<path d="M791.0779,1540.217C783.2961,1539.9602,777,1539.5,777,1539.5s5.9715,0.4825,13.3539,0.7671
				c7.3846,0.2841,13.7112,0.2396,14.1138,0.2122C804.8647,1540.4514,798.8628,1540.4735,791.0779,1540.217z"/>
			<path d="M794.1014,1539.9314C784.6523,1539.8325,777,1539.5,777,1539.5s7.4192,0.36,16.5818,0.4928
				c9.1671,0.1323,16.8433-0.0406,17.1331-0.0742C810.9979,1539.8843,803.5549,1540.0298,794.1014,1539.9314z"/>
			<path d="M795.9943,1539.6008C785.5029,1539.6846,777,1539.5,777,1539.5s8.3765,0.2153,18.7133,0.1694
				c10.34-0.0463,18.8552-0.3678,19.0135-0.4049C814.877,1539.2257,806.4883,1539.5166,795.9943,1539.6008z"/>
			<path d="M796.6328,1539.2472C785.7924,1539.5262,777,1539.5,777,1539.5s8.7808,0.0582,19.6086-0.1814
				c10.8284-0.24,19.6147-0.7206,19.6346-0.7582C816.2469,1538.5203,807.4732,1538.9678,796.6328,1539.2472z"/>
		</g>
		<g>
			<path d="M757.3914,14.6813c-10.8283,0.24-19.6146,0.7206-19.6346,0.7583c-0.0037,0.0401,8.7701-0.4074,19.6105-0.6868
				C768.2076,14.4738,777,14.5,777,14.5S768.2192,14.4418,757.3914,14.6813z"/>
			<path d="M758.2867,14.3305c-10.34,0.0463-18.8552,0.3678-19.0134,0.405c-0.1503,0.0388,8.2383-0.2521,18.7324-0.3363
				C768.4971,14.3154,777,14.5,777,14.5S768.6236,14.2847,758.2867,14.3305z"/>
			<path d="M760.4182,14.0072c-9.1671-0.1324-16.8433,0.0406-17.1331,0.0741c-0.283,0.0343,7.1601-0.1112,16.6135-0.0127
				C769.3477,14.1675,777,14.5,777,14.5S769.5809,14.14,760.4182,14.0072z"/>
			<path d="M763.6461,13.7329c-7.3846-0.2841-13.7112-0.2397-14.1138-0.2122c-0.397,0.0279,5.6049,0.0058,13.3898,0.2622
				C770.7039,14.0397,777,14.5,777,14.5S771.0285,14.0174,763.6461,13.7329z"/>
			<path d="M767.7582,13.5258c-5.1092-0.3985-9.6646-0.4542-10.1534-0.4348c-0.4849,0.0197,3.6756,0.0911,9.2726,0.4702
				C772.4772,13.9408,777,14.5,777,14.5S772.8722,13.9252,767.7582,13.5258z"/>
			<path d="M772.4826,13.3997c-2.4879-0.4664-4.9718-0.5886-5.5144-0.5787c-0.5406,0.0103,1.5029,0.1397,4.5351,0.5969
				C774.5535,13.8783,777,14.5,777,14.5S774.9943,13.8712,772.4826,13.3997z"/>
			<path d="M777.5064,13.3629c0.2477-0.4326,0.0538-0.6338-0.5064-0.634c-0.5602,0.0002-0.7541,0.2014-0.5064,0.634
				C776.8074,13.9107,777,14.5,777,14.5S777.1926,13.9107,777.5064,13.3629z"/>
			<path d="M782.4967,13.418c3.0322-0.4572,5.0757-0.5867,4.5351-0.5969c-0.5426-0.0099-3.0266,0.1123-5.5144,0.5787
				C779.0057,13.8712,777,14.5,777,14.5S779.4465,13.8783,782.4967,13.418z"/>
			<path d="M787.1226,13.5612c5.597-0.3791,9.7575-0.4504,9.2726-0.4702c-0.4888-0.0194-5.0442,0.0364-10.1534,0.4348
				C781.1279,13.9252,777,14.5,777,14.5S781.5228,13.9408,787.1226,13.5612z"/>
			<path d="M791.0779,13.783c7.7849-0.2565,13.7868-0.2344,13.3898-0.2622c-0.4026-0.0274-6.7292-0.0719-14.1138,0.2122
				C782.9715,14.0174,777,14.5,777,14.5S783.2961,14.0397,791.0779,13.783z"/>
			<path d="M794.1014,14.0686c9.4534-0.0985,16.8965,0.047,16.6135,0.0127c-0.2899-0.0336-7.9661-0.2065-17.1331-0.0741
				C784.4192,14.14,777,14.5,777,14.5S784.6523,14.1675,794.1014,14.0686z"/>
			<path d="M795.9943,14.3992c10.4941,0.0842,18.8828,0.3751,18.7325,0.3363c-0.1583-0.0372-8.6735-0.3587-19.0135-0.405
				C785.3765,14.2847,777,14.5,777,14.5S785.5029,14.3154,795.9943,14.3992z"/>
			<path d="M796.6328,14.7528c10.8404,0.2794,19.6141,0.727,19.6104,0.6868c-0.02-0.0377-8.8063-0.5182-19.6346-0.7583
				C785.7808,14.4418,777,14.5,777,14.5S785.7924,14.4738,796.6328,14.7528z"/>
		</g>
		<g>
			<path d="M563.958,1509.8599c10.4191,2.9969,18.843,5.0337,18.8296,4.8408c-0.0291-0.1866-8.4835-2.5558-18.8954-5.5864
				c-10.4119-3.0308-18.8369-5.5498-18.8313-5.3274C545.0833,1504.0112,553.5386,1506.8621,563.958,1509.8599z"/>
			<path d="M572.7585,1513.541c10.0358,2.8303,17.5975,4.7351,16.85,4.5475c-0.7114-0.1787-9.5639-2.4076-19.7321-5.2709
				c-10.1732-2.8651-17.709-5.2511-16.8694-5.0411C553.8895,1507.9983,562.7162,1510.7084,572.7585,1513.541z"/>
			<path d="M595.2572,1516.9626c8.9664,2.6732,15.1209,4.4614,13.7059,4.2955c-1.3804-0.1639-10.0175-2.2444-19.2507-4.9474
				c-9.2474-2.708-15.3813-4.986-13.7384-4.795C577.6578,1511.7144,586.2741,1514.2845,595.2572,1516.9626z"/>
			<path d="M630.1111,1519.8888c7.2668,2.536,11.5797,4.2382,9.5867,4.1034c-1.9643-0.1357-9.7969-2.0779-17.45-4.6384
				c-7.6804-2.5713-11.9697-4.7646-9.6238-4.6078C615.0041,1514.9089,622.8132,1517.3423,630.1111,1519.8888z"/>
			<path d="M675.0662,1522.1121c5.0428,2.4265,7.2042,4.0813,4.7647,3.9865c-2.4189-0.0972-8.9044-1.9216-14.428-4.3665
				c-5.5696-2.4673-7.6915-4.6053-4.7969-4.4943C663.5251,1517.354,669.9711,1519.6619,675.0662,1522.1121z"/>
			<path d="M727.0918,1523.472c2.4474,2.34,2.2979,4.0029-0.422,3.9547c-2.7092-0.0514-7.3938-1.7974-10.3824-4.1519
				c-3.0594-2.4144-2.8421-4.5211,0.4034-4.4644C719.9492,1518.8717,724.5661,1521.0615,727.0918,1523.472z"/>
			<path d="M782.5977,1523.8695c-0.2722,2.2778-2.7854,4.0093-5.5977,4.011c-2.8122-0.0017-5.3255-1.7332-5.5977-4.011
				c-0.2857-2.4351,2.2275-4.5193,5.5977-4.5215C780.3702,1519.3502,782.8834,1521.4344,782.5977,1523.8695z"/>
			<path d="M837.7126,1523.2749c-2.9886,2.3545-7.6732,4.1005-10.3824,4.1519c-2.7198,0.0482-2.8694-1.6147-0.422-3.9547
				c2.5257-2.4105,7.1426-4.6003,10.401-4.6615C840.5547,1518.7538,840.772,1520.8605,837.7126,1523.2749z"/>
			<path d="M888.5971,1521.7321c-5.5236,2.4448-12.0091,4.2693-14.428,4.3665c-2.4395,0.0948-0.2781-1.5599,4.7647-3.9865
				c5.0951-2.4502,11.5411-4.7581,14.4602-4.8743C896.2886,1517.1267,894.1667,1519.2648,888.5971,1521.7321z"/>
			<path d="M931.7521,1519.3538c-7.653,2.5605-15.4856,4.5027-17.45,4.6384c-1.993,0.1348,2.3199-1.5674,9.5867-4.1034
				c7.298-2.5465,15.1071-4.9799,17.4871-5.1428C943.7219,1514.5891,939.4325,1516.7825,931.7521,1519.3538z"/>
			<path d="M964.2877,1516.3108c-9.2333,2.703-17.8703,4.7834-19.2508,4.9474c-1.415,0.1659,4.7396-1.6223,13.7059-4.2955
				c8.9831-2.6781,17.5994-5.2483,19.2832-5.4469C979.6689,1511.3248,973.5351,1513.6028,964.2877,1516.3108z"/>
			<path d="M984.1236,1512.8176c-10.1682,2.8633-19.0207,5.0922-19.7321,5.2709c-0.7474,0.1876,6.8143-1.7172,16.8501-4.5475
				c10.0422-2.8326,18.8689-5.5427,19.7515-5.7645C1001.8326,1507.5665,994.2968,1509.9525,984.1236,1512.8176z"/>
			<path d="M990.1078,1509.1143c-10.4119,3.0306-18.8662,5.3998-18.8954,5.5864c-0.0134,0.1929,8.4105-1.8439,18.8296-4.8408
				c10.4194-2.9978,18.8747-5.8486,18.8971-6.073C1008.9448,1503.5645,1000.5197,1506.0835,990.1078,1509.1143z"/>
		</g>
		<g>
			<path d="M563.958,44.1401c-10.4194,2.9978-18.8747,5.8486-18.8971,6.073c-0.0056,0.2224,8.4194-2.2966,18.8313-5.3274
				c10.4119-3.0307,18.8663-5.3997,18.8954-5.5864C582.801,39.1064,574.3771,41.1432,563.958,44.1401z"/>
			<path d="M572.7585,40.459c-10.0423,2.8326-18.869,5.5427-19.7515,5.7644c-0.8396,0.21,6.6963-2.1759,16.8694-5.0411
				c10.1682-2.8633,19.0207-5.0922,19.7321-5.2709C590.356,35.7238,582.7943,37.6287,572.7585,40.459z"/>
			<path d="M595.2572,37.0373c-8.9831,2.6782-17.5994,5.2483-19.2832,5.447c-1.6429,0.1908,4.491-2.087,13.7384-4.7951
				c9.2333-2.703,17.8703-4.7835,19.2507-4.9474C610.3781,32.5759,604.2236,34.3641,595.2572,37.0373z"/>
			<path d="M630.1111,34.1112c-7.298,2.5464-15.1071,4.9798-17.4871,5.1428c-2.3459,0.1569,1.9435-2.0366,9.6238-4.6078
				c7.653-2.5606,15.4857-4.5028,17.45-4.6385C641.6909,29.873,637.3779,31.5752,630.1111,34.1112z"/>
			<path d="M675.0662,31.8879c-5.0951,2.4502-11.5411,4.758-14.4602,4.8742c-2.8945,0.1111-0.7727-2.027,4.7969-4.4943
				c5.5236-2.4447,12.0091-4.2693,14.428-4.3665C682.2703,27.8066,680.109,29.4614,675.0662,31.8879z"/>
			<path d="M727.0918,30.5279c-2.5257,2.4106-7.1426,4.6004-10.401,4.6616c-3.2455,0.0568-3.4628-2.0499-0.4034-4.4644
				c2.9886-2.3545,7.6732-4.1005,10.3824-4.1518C729.3896,26.525,729.5392,28.188,727.0918,30.5279z"/>
			<path d="M782.5977,30.1305c0.2857,2.435-2.2274,4.5193-5.5977,4.5214c-3.3702-0.0021-5.8834-2.0865-5.5977-4.5214
				c0.2722-2.2779,2.7855-4.0093,5.5977-4.011C779.8123,26.1212,782.3255,27.8526,782.5977,30.1305z"/>
			<path d="M837.7126,30.7251c3.0594,2.4144,2.8421,4.5212-0.4034,4.4644c-3.2584-0.0612-7.8753-2.251-10.401-4.6616
				c-2.4474-2.3399-2.2979-4.0029,0.422-3.9546C830.0394,26.6246,834.724,28.3706,837.7126,30.7251z"/>
			<path d="M888.5971,32.2679c5.5696,2.4673,7.6915,4.6054,4.7969,4.4943c-2.9191-0.1162-9.3651-2.424-14.4602-4.8742
				c-5.0428-2.4266-7.2042-4.0813-4.7647-3.9865C876.588,27.9986,883.0735,29.8232,888.5971,32.2679z"/>
			<path d="M931.7521,34.6463c7.6804,2.5712,11.9697,4.7647,9.6238,4.6078c-2.3801-0.163-10.1891-2.5964-17.4871-5.1428
				c-7.2668-2.5361-11.5797-4.2382-9.5867-4.1034C916.2665,30.1435,924.0992,32.0856,931.7521,34.6463z"/>
			<path d="M964.2877,37.6892c9.2474,2.708,15.3813,4.9859,13.7383,4.7951c-1.6838-0.1987-10.3001-2.7688-19.2832-5.447
				c-8.9664-2.6732-15.1209-4.4613-13.7059-4.2955C946.4174,32.9058,955.0543,34.9862,964.2877,37.6892z"/>
			<path d="M984.1236,41.1824c10.1732,2.8652,17.709,5.2511,16.8694,5.0411c-0.8826-0.2217-9.7092-2.9318-19.7515-5.7644
				c-10.0358-2.8304-17.5975-4.7352-16.8501-4.5475C965.1029,36.0901,973.9554,38.3191,984.1236,41.1824z"/>
			<path d="M990.1078,44.8857c10.4119,3.0308,18.837,5.5498,18.8313,5.3274c-0.0224-0.2244-8.4777-3.0752-18.8971-6.073
				c-10.4191-2.9969-18.843-5.0337-18.8296-4.8408C971.2416,39.486,979.6959,41.855,990.1078,44.8857z"/>
		</g>
		<g>
			<path d="M384.255,1431.9297c9.3192,5.5632,16.9085,9.583,16.9646,9.2584c0.0416-0.3378-7.4525-4.9032-16.7491-10.4857
				c-9.2968-5.5823-16.8841-10.0504-16.9658-9.6942C367.4427,1421.3518,374.9356,1426.3654,384.255,1431.9297z"/>
			<path d="M398.8766,1438.02c9.0517,5.4674,15.3461,9.4235,13.9773,9.0955c-1.2964-0.3156-9.8361-4.8101-18.9927-10.2963
				c-9.1619-5.4907-15.394-9.8718-13.9964-9.5432C381.3392,1427.6287,389.8168,1432.5481,398.8766,1438.02z"/>
			<path d="M439.1937,1443.7279c8.1484,5.3724,12.6409,9.2721,9.9482,8.9796c-2.6233-0.2917-11.6111-4.6812-19.9912-10.0707
				c-8.3978-5.4036-12.8305-9.74-9.981-9.4382C422.0938,1433.5162,431.0219,1438.3423,439.1937,1443.7279z"/>
			<path d="M503.0467,1448.645c6.6446,5.2838,8.9794,9.1619,5.1226,8.9225c-3.7983-0.2432-12.6163-4.5261-19.6082-9.8241
				c-7.0272-5.3297-9.2997-9.6403-5.1608-9.3903C487.6025,1438.6154,496.3582,1443.3307,503.0467,1448.645z"/>
			<path d="M586.3961,1452.4036c4.6322,5.2051,4.6031,9.1006-0.1636,8.9315c-4.7244-0.1752-12.7403-4.359-17.8131-9.5752
				c-5.1257-5.2789-5.0274-9.5839,0.1302-9.4061C573.7531,1442.5419,581.6998,1447.1351,586.3961,1452.4036z"/>
			<path d="M683.5293,1454.7125c2.2648,5.1392-0.1661,9.0946-5.5092,9.0088c-5.321-0.0934-11.9354-4.197-14.6996-9.3441
				c-2.8156-5.2601-0.3249-9.5782,5.4899-9.4875C674.6492,1444.9895,681.2039,1449.4558,683.5293,1454.7125z"/>
			<path d="M787.4885,1455.3884c-0.2586,5.1106-4.9547,9.146-10.4885,9.1499c-5.5338-0.0039-10.2298-4.0393-10.4885-9.1499
				c-0.2568-5.2622,4.4391-9.6257,10.4885-9.6301C783.0493,1445.7627,787.7453,1450.1262,787.4885,1455.3884z"/>
			<path d="M890.6796,1454.3772c-2.7642,5.1471-9.3787,9.2507-14.6996,9.3441c-5.3431,0.0858-7.774-3.8696-5.5093-9.0088
				c2.3255-5.2567,8.8801-9.723,14.719-9.8229C891.0045,1444.799,893.4952,1449.1171,890.6796,1454.3772z"/>
			<path d="M985.5806,1451.7599c-5.0728,5.2162-13.0887,9.4-17.8131,9.5752c-4.7667,0.1691-4.7958-3.7264-0.1635-8.9315
				c4.6962-5.2684,12.6429-9.8617,17.8464-10.0498C990.608,1442.176,990.7063,1446.481,985.5806,1451.7599z"/>
			<path d="M1065.439,1447.7434c-6.9919,5.298-15.8099,9.5809-19.6083,9.8241c-3.8568,0.2394-1.5219-3.6387,5.1227-8.9225
				c6.6885-5.3143,15.4441-10.0297,19.6464-10.2919C1074.7388,1438.1031,1072.4662,1442.4137,1065.439,1447.7434z"/>
			<path d="M1124.8494,1442.6368c-8.3801,5.3895-17.3679,9.7789-19.9912,10.0707c-2.6927,0.2925,1.7998-3.6072,9.9482-8.9796
				c8.1718-5.3856,17.0999-10.2117,20.0239-10.5293C1137.6798,1432.8969,1133.2472,1437.2333,1124.8494,1442.6368z"/>
			<path d="M1160.1388,1436.8192c-9.1566,5.4862-17.6963,9.9807-18.9927,10.2963c-1.3688,0.328,4.9255-3.6281,13.9773-9.0955
				c9.0598-5.4719,17.5374-10.3914,19.0117-10.744C1175.5328,1426.9474,1169.3007,1431.3285,1160.1388,1436.8192z"/>
			<path d="M1169.5295,1430.7024c-9.2966,5.5825-16.7908,10.1479-16.7491,10.4857c0.056,0.3246,7.6454-3.6952,16.9646-9.2584
				c9.3193-5.5643,16.8124-10.5779,16.7504-10.9215C1186.4136,1420.652,1178.8263,1425.1201,1169.5295,1430.7024z"/>
		</g>
		<g>
			<path d="M384.255,122.0703c-9.3194,5.5643-16.8123,10.5779-16.7503,10.9215c0.0817,0.3562,7.669-4.1119,16.9658-9.6943
				c9.2967-5.5825,16.7907-10.148,16.7491-10.4857C401.1635,112.4873,393.5742,116.5071,384.255,122.0703z"/>
			<path d="M398.8766,115.98c-9.0598,5.4719-17.5374,10.3913-19.0118,10.744c-1.3976,0.3287,4.8345-4.0525,13.9964-9.5431
				c9.1566-5.4862,17.6963-9.9808,18.9927-10.2962C414.2227,106.5565,407.9283,110.5126,398.8766,115.98z"/>
			<path d="M439.1937,110.2721c-8.1718,5.3857-17.0999,10.2117-20.024,10.5292c-2.8495,0.3019,1.5832-4.0346,9.981-9.4382
				c8.3801-5.3894,17.368-9.7789,19.9912-10.0707C451.8346,100.9999,447.3421,104.8997,439.1937,110.2721z"/>
			<path d="M503.0467,105.355c-6.6884,5.3143-15.4442,10.0296-19.6464,10.2918c-4.1389,0.25-1.8664-4.0605,5.1608-9.3902
				c6.9919-5.298,15.81-9.581,19.6082-9.8241C512.0261,96.1931,509.6912,100.0712,503.0467,105.355z"/>
			<path d="M586.3961,101.5964c-4.6962,5.2685-12.643,9.8617-17.8465,10.0498c-5.1576,0.1778-5.2559-4.1272-0.1302-9.4061
				c5.0728-5.2161,13.0887-9.4,17.8131-9.5752C590.9991,92.4958,591.0283,96.3914,586.3961,101.5964z"/>
			<path d="M683.5293,99.2875c-2.3254,5.2566-8.8801,9.723-14.719,9.8228c-5.8148,0.0907-8.3055-4.2274-5.4899-9.4876
				c2.7642-5.1471,9.3787-9.2506,14.6996-9.344C683.3632,90.1928,685.7941,94.1483,683.5293,99.2875z"/>
			<path d="M787.4885,98.6115c0.2568,5.2622-4.4391,9.6257-10.4885,9.6301c-6.0493-0.0044-10.7452-4.3679-10.4885-9.6301
				c0.2587-5.1106,4.9547-9.1459,10.4885-9.1499C782.5338,89.4656,787.2299,93.501,787.4885,98.6115z"/>
			<path d="M890.6796,99.6227c2.8156,5.2602,0.325,9.5783-5.4899,9.4876c-5.8389-0.0999-12.3935-4.5662-14.719-9.8228
				c-2.2648-5.1392,0.1661-9.0947,5.5093-9.0088C881.3009,90.3721,887.9154,94.4757,890.6796,99.6227z"/>
			<path d="M985.5806,102.2401c5.1257,5.2789,5.0274,9.5839-0.1302,9.4061c-5.2035-0.1881-13.1503-4.7813-17.8464-10.0498
				c-4.6323-5.205-4.6031-9.1006,0.1635-8.9315C972.4919,92.8401,980.5078,97.0239,985.5806,102.2401z"/>
			<path d="M1065.439,106.2566c7.0272,5.3297,9.2998,9.6402,5.1608,9.3902c-4.2023-0.2622-12.9579-4.9775-19.6464-10.2918
				c-6.6445-5.2838-8.9795-9.1619-5.1227-8.9225C1049.629,96.6756,1058.447,100.9586,1065.439,106.2566z"/>
			<path d="M1124.8494,111.3631c8.3978,5.4036,12.8304,9.7401,9.981,9.4382c-2.9241-0.3176-11.8522-5.1436-20.0239-10.5292
				c-8.1484-5.3724-12.641-9.2721-9.9482-8.9796C1107.4814,101.5842,1116.4692,105.9737,1124.8494,111.3631z"/>
			<path d="M1160.1388,117.1808c9.1619,5.4906,15.394,9.8718,13.9963,9.5431c-1.4744-0.3526-9.9519-5.2721-19.0117-10.744
				c-9.0518-5.4674-15.3461-9.4234-13.9773-9.0954C1142.4425,107.2,1150.9822,111.6946,1160.1388,117.1808z"/>
			<path d="M1169.5295,123.2976c9.2968,5.5823,16.884,10.0504,16.9658,9.6943c0.062-0.3436-7.431-5.3572-16.7504-10.9215
				c-9.3192-5.5632-16.9086-9.5831-16.9646-9.2584C1152.7388,113.1496,1160.2329,117.7151,1169.5295,123.2976z"/>
		</g>
		<g>
			<path d="M230.2327,1310.5734c7.5981,7.7664,13.9066,13.5504,14.0845,13.1875c0.1819-0.4105-5.8148-6.8124-13.3832-14.5785
				c-7.5686-7.7657-13.8538-13.9481-14.0845-13.5435C216.6593,1296.0048,222.6347,1302.8059,230.2327,1310.5734z"/>
			<path d="M248.6616,1317.5063c7.4334,7.7672,12.0607,13.5815,10.2169,13.197c-1.738-0.3718-9.329-6.8015-16.8387-14.568
				c-7.5132-7.7731-12.0461-13.9287-10.2351-13.5669C233.7236,1302.9626,241.2204,1309.733,248.6616,1317.5063z"/>
			<path d="M303.3705,1324.0502c6.7368,7.7614,9.2476,13.5959,5.4881,13.251c-3.6578-0.3468-12.327-6.7449-19.2485-14.5052
				c-6.9346-7.7817-9.3567-13.9689-5.5205-13.6335C288.031,1309.519,296.6114,1316.2694,303.3705,1324.0502z"/>
			<path d="M391.7548,1329.7236c5.526,7.7485,5.6692,13.6333,0.2028,13.3495c-5.3799-0.291-14.54-6.6447-20.3521-14.3923
				c-5.8372-7.793-5.8983-14.0225-0.2413-13.7432C377.1115,1315.234,386.1896,1321.9321,391.7548,1329.7236z"/>
			<path d="M508.3536,1334.0833c3.8728,7.7294,1.5721,13.6901-5.2426,13.4891c-6.7518-0.2112-15.7379-6.5082-19.9798-14.2372
				c-4.2738-7.8079-1.9018-14.0906,5.2086-13.8914C495.5161,1319.6577,504.4311,1326.2767,508.3536,1334.0833z"/>
			<path d="M645.0732,1336.7711c1.9029,7.7092-2.7217,13.7637-10.3971,13.662c-7.6422-0.1135-15.7673-6.3433-18.0935-14.0527
				c-2.3477-7.8236,2.3221-14.1707,10.3772-14.0695C635.0498,1322.4255,643.1295,1328.948,645.0732,1336.7711z"/>
			<path d="M791.8098,1337.5596c-0.2209,7.7-6.8486,13.8489-14.8098,13.855c-7.9612-0.0061-14.5888-6.155-14.8098-13.855
				c-0.2114-7.8312,6.4162-14.2581,14.8098-14.2645C785.3936,1323.3015,792.0211,1329.7284,791.8098,1337.5596z"/>
			<path d="M937.4174,1336.3804c-2.3262,7.7095-10.4512,13.9392-18.0934,14.0527c-7.6754,0.1017-12.3-5.9528-10.3971-13.662
				c1.9437-7.8231,10.0234-14.3456,18.1134-14.4602C935.0953,1322.2097,939.7651,1328.5568,937.4174,1336.3804z"/>
			<path d="M1070.8689,1333.3352c-4.2418,7.729-13.228,14.026-19.9799,14.2372c-6.8147,0.2009-9.1155-5.7598-5.2426-13.4891
				c3.9225-7.8065,12.8374-14.4255,20.0138-14.6394C1072.7708,1319.2446,1075.1427,1325.5273,1070.8689,1333.3352z"/>
			<path d="M1182.3945,1328.6808c-5.8121,7.7477-14.9722,14.1013-20.3522,14.3923c-5.4663,0.2838-5.3231-5.601,0.2029-13.3495
				c5.5652-7.7915,14.6433-14.4896,20.3906-14.786C1188.2928,1314.6583,1188.2317,1320.8878,1182.3945,1328.6808z"/>
			<path d="M1264.3899,1322.7959c-6.9215,7.7604-15.5906,14.1584-19.2484,14.5052c-3.7595,0.345-1.2488-5.4896,5.488-13.251
				c6.759-7.7808,15.3395-14.5311,19.2809-14.8878C1273.7466,1308.827,1271.3245,1315.0142,1264.3899,1322.7959z"/>
			<path d="M1311.9601,1316.1354c-7.5096,7.7665-15.1007,14.1962-16.8386,14.568c-1.8438,0.3845,2.7836-5.4298,10.2169-13.197
				c7.4413-7.7733,14.938-14.5437,16.8568-14.9379C1324.0062,1302.2067,1319.4733,1308.3623,1311.9601,1316.1354z"/>
			<path d="M1323.066,1309.1824c-7.5684,7.7661-13.5651,14.168-13.3832,14.5785c0.1779,0.3629,6.4863-5.4211,14.0845-13.1875
				c7.5979-7.7675,13.5734-14.5686,13.3832-14.9344C1336.9198,1295.2343,1330.6348,1301.4166,1323.066,1309.1824z"/>
		</g>
		<g>
			<path d="M230.2327,243.4266c-7.5979,7.7674-13.5733,14.5686-13.3832,14.9345c0.2307,0.4046,6.5158-5.7777,14.0845-13.5435
				c7.5684-7.7661,13.5651-14.1679,13.3832-14.5784C244.1393,229.8762,237.8308,235.6602,230.2327,243.4266z"/>
			<path d="M248.6616,236.4936c-7.4413,7.7733-14.938,14.5437-16.8568,14.9379c-1.811,0.3619,2.7219-5.7938,10.2351-13.5668
				c7.5097-7.7665,15.1007-14.1962,16.8387-14.568C260.7224,222.9121,256.095,228.7264,248.6616,236.4936z"/>
			<path d="M303.3705,229.9498c-6.7591,7.7808-15.3394,14.5312-19.2809,14.8879c-3.8361,0.3354-1.414-5.8518,5.5205-13.6336
				c6.9215-7.7604,15.5906-14.1585,19.2485-14.5052C312.6181,216.3539,310.1073,222.1884,303.3705,229.9498z"/>
			<path d="M391.7548,224.2763c-5.5652,7.7915-14.6433,14.4897-20.3906,14.786c-5.657,0.2793-5.5959-5.9501,0.2413-13.7431
				c5.8121-7.7476,14.9722-14.1013,20.3521-14.3923C397.424,210.6431,397.2808,216.5278,391.7548,224.2763z"/>
			<path d="M508.3536,219.9168c-3.9225,7.8065-12.8374,14.4255-20.0139,14.6393c-7.1104,0.1992-9.4824-6.0835-5.2086-13.8913
				c4.2419-7.729,13.2281-14.026,19.9798-14.2372C509.9256,206.2266,512.2264,212.1874,508.3536,219.9168z"/>
			<path d="M645.0732,217.2289c-1.9437,7.8231-10.0234,14.3456-18.1134,14.4602c-8.0551,0.1012-12.7249-6.2458-10.3772-14.0694
				c2.3262-7.7094,10.4513-13.9392,18.0935-14.0527C642.3515,203.4652,646.9761,209.5196,645.0732,217.2289z"/>
			<path d="M791.8098,216.4405c0.2114,7.8311-6.4162,14.2579-14.8098,14.2644c-8.3936-0.0065-15.0211-6.4333-14.8098-14.2644
				c0.2209-7.7,6.8486-13.849,14.8098-13.8551C784.9612,202.5915,791.5888,208.7404,791.8098,216.4405z"/>
			<path d="M937.4174,217.6196c2.3477,7.8236-2.3221,14.1706-10.3771,14.0694c-8.09-0.1146-16.1697-6.6371-18.1134-14.4602
				c-1.9029-7.7092,2.7217-13.7637,10.3971-13.6619C926.9661,203.6804,935.0912,209.9102,937.4174,217.6196z"/>
			<path d="M1070.8689,220.6648c4.2738,7.8078,1.9019,14.0905-5.2086,13.8913c-7.1764-0.2139-16.0913-6.8328-20.0138-14.6393
				c-3.8729-7.7294-1.5721-13.6902,5.2426-13.4892C1057.6409,206.6388,1066.6271,212.9358,1070.8689,220.6648z"/>
			<path d="M1182.3945,225.3192c5.8372,7.793,5.8983,14.0225,0.2413,13.7431c-5.7473-0.2963-14.8254-6.9945-20.3906-14.786
				c-5.526-7.7485-5.6692-13.6333-0.2029-13.3495C1167.4224,211.2179,1176.5824,217.5716,1182.3945,225.3192z"/>
			<path d="M1264.3899,231.2041c6.9346,7.7818,9.3567,13.9689,5.5205,13.6336c-3.9414-0.3567-12.5219-7.1071-19.2809-14.8879
				c-6.7368-7.7614-9.2476-13.5959-5.488-13.2509C1248.7993,217.0456,1257.4684,223.4437,1264.3899,231.2041z"/>
			<path d="M1311.9601,237.8646c7.5132,7.773,12.0461,13.9287,10.2351,13.5668c-1.9188-0.3942-9.4155-7.1646-16.8568-14.9379
				c-7.4333-7.7672-12.0607-13.5816-10.2169-13.197C1296.8594,223.6685,1304.4504,230.0981,1311.9601,237.8646z"/>
			<path d="M1323.066,244.8176c7.5687,7.7658,13.8538,13.9481,14.0845,13.5435c0.1902-0.3659-5.7853-7.167-13.3832-14.9345
				c-7.5981-7.7664-13.9066-13.5504-14.0845-13.1875C1309.501,230.6497,1315.4977,237.0515,1323.066,244.8176z"/>
		</g>
		<g>
			<path d="M112.1813,1153.7615c5.3683,9.4573,10.0104,16.6848,10.3114,16.3817c0.3515-0.3801-3.7443-8.1378-9.0852-17.5753
				c-5.3415-9.4371-9.9128-16.9806-10.3099-16.6338C102.7862,1136.2267,106.8135,1144.3033,112.1813,1153.7615z"/>
			<path d="M132.7819,1159.7306c5.281,9.5557,7.9206,16.9038,5.7483,16.5641c-2.0387-0.3323-8.129-8.2117-13.4597-17.7472
				c-5.331-9.542-7.8503-17.1276-5.7652-16.828C121.5246,1142.0531,127.4947,1150.1691,132.7819,1159.7306z"/>
			<path d="M197.9524,1165.3956c4.8116,9.6433,5.1286,17.0842,0.5661,16.7783c-4.4347-0.312-12.1436-8.2423-17.0852-17.8665
				c-4.9453-9.6456-5.1548-17.3331-0.5977-17.0537C185.5229,1147.5568,193.1243,1155.7332,197.9524,1165.3956z"/>
			<path d="M304.9191,1170.3317c3.9659,9.7139,1.8412,17.2651-4.8734,17.0126c-6.6051-0.2635-15.4341-8.224-19.6064-17.9216
				c-4.1799-9.7405-1.9652-17.5313,4.8352-17.2979C292.1871,1152.3779,300.9262,1160.5778,304.9191,1170.3317z"/>
			<path d="M447.2134,1174.14c2.7907,9.7631-1.6974,17.4308-10.1263,17.252c-8.3487-0.1926-17.6656-8.1552-20.7263-17.9064
				c-3.0681-9.819,1.487-17.7112,10.0921-17.5448C435.1405,1156.1249,444.3904,1164.3118,447.2134,1174.14z"/>
			<path d="M614.8705,1176.4949c1.3741,9.7898-5.187,17.5682-14.7168,17.4786c-9.4872-0.1049-18.5785-8.0376-20.2648-17.8213
				c-1.6859-9.8724,4.912-17.8597,14.6966-17.7764C604.4139,1158.476,613.4684,1166.6178,614.8705,1176.4949z"/>
			<path d="M795.2061,1177.1866c-0.1635,9.7961-8.3098,17.6663-18.2061,17.6741c-9.8964-0.0078-18.0426-7.8779-18.2061-17.6741
				c-0.1487-9.8931,7.9975-17.9656,18.2061-17.9736C787.2086,1159.2211,795.3549,1167.2936,795.2061,1177.1866z"/>
			<path d="M974.1111,1176.1522c-1.6863,9.7837-10.7776,17.7164-20.2648,17.8213c-9.5298,0.0896-16.0909-7.6888-14.7168-17.4786
				c1.4021-9.8771,10.4565-18.0189,20.285-18.119C969.1991,1158.2925,975.797,1166.2798,974.1111,1176.1522z"/>
			<path d="M1137.6392,1173.4856c-3.0605,9.7512-12.3776,17.7137-20.7262,17.9064c-8.429,0.1788-12.917-7.4889-10.1263-17.252
				c2.823-9.8282,12.0729-18.0151,20.7605-18.1992C1136.1521,1155.7744,1140.7073,1163.6666,1137.6392,1173.4856z"/>
			<path d="M1273.5607,1169.4226c-4.1722,9.6976-13.0012,17.6581-19.6063,17.9216c-6.7146,0.2526-8.8394-7.2987-4.8734-17.0126
				c3.9929-9.7539,12.7321-17.9537,19.6447-18.2069C1275.526,1151.8914,1277.7406,1159.6821,1273.5607,1169.4226z"/>
			<path d="M1372.5668,1164.3075c-4.9417,9.6241-12.6505,17.5544-17.0852,17.8665c-4.5626,0.3059-4.2455-7.135,0.566-16.7783
				c4.8281-9.6625,12.4294-17.8389,17.1168-18.1418C1377.7216,1146.9744,1377.5121,1154.6619,1372.5668,1164.3075z"/>
			<path d="M1428.9294,1158.5475c-5.3307,9.5355-11.421,17.4149-13.4597,17.7472c-2.1722,0.3397,0.4674-7.0084,5.7484-16.5641
				c5.2872-9.5615,11.2573-17.6775,13.4764-18.0111C1436.7798,1141.4199,1434.2605,1149.0055,1428.9294,1158.5475z"/>
			<path d="M1440.5925,1152.5679c-5.3409,9.4375-9.4368,17.1952-9.0852,17.5753c0.301,0.3031,4.9431-6.9244,10.3114-16.3817
				c5.3678-9.4581,9.3951-17.5348,9.0837-17.8274C1450.5052,1135.5873,1445.934,1143.1307,1440.5925,1152.5679z"/>
		</g>
		<g>
			<path d="M112.1813,400.2385c-5.3678,9.4582-9.3951,17.5348-9.0837,17.8274c0.3972,0.3468,4.9685-7.1966,10.3099-16.6338
				c5.3409-9.4375,9.4368-17.1952,9.0852-17.5753C122.1917,383.5537,117.5496,390.7812,112.1813,400.2385z"/>
			<path d="M132.7819,394.2694c-5.2873,9.5615-11.2574,17.6775-13.4765,18.0112c-2.0852,0.2995,0.4341-7.2861,5.7652-16.8281
				c5.3307-9.5355,11.421-17.4149,13.4597-17.7471C140.7026,377.3656,138.0629,384.7137,132.7819,394.2694z"/>
			<path d="M197.9524,388.6044c-4.8282,9.6624-12.4295,17.8388-17.1168,18.1418c-4.5571,0.2794-4.3476-7.4081,0.5977-17.0536
				c4.9416-9.6242,12.6505-17.5545,17.0852-17.8665C203.081,371.5201,202.764,378.9611,197.9524,388.6044z"/>
			<path d="M304.9191,383.6684c-3.993,9.7539-12.7321,17.9536-19.6447,18.2068c-6.8004,0.2334-9.015-7.5573-4.8352-17.2978
				c4.1723-9.6976,13.0013-17.6581,19.6064-17.9216C306.7603,366.4032,308.885,373.9545,304.9191,383.6684z"/>
			<path d="M447.2134,379.86c-2.823,9.8283-12.0729,18.0151-20.7605,18.1992c-8.605,0.1664-13.1602-7.7258-10.0921-17.5448
				c3.0606-9.7512,12.3776-17.7137,20.7263-17.9063C445.516,362.4292,450.0041,370.097,447.2134,379.86z"/>
			<path d="M614.8705,377.5051c-1.402,9.8772-10.4565,18.019-20.285,18.119c-9.7846,0.0835-16.3824-7.9039-14.6966-17.7764
				c1.6863-9.7836,10.7776-17.7164,20.2648-17.8213C609.6835,359.9368,616.2446,367.7153,614.8705,377.5051z"/>
			<path d="M795.2061,376.8134c0.1487,9.893-7.9975,17.9655-18.2061,17.9736c-10.2086-0.0081-18.3549-8.0806-18.2061-17.9736
				c0.1635-9.7961,8.3098-17.6663,18.2061-17.6742C786.8964,359.1471,795.0427,367.0172,795.2061,376.8134z"/>
			<path d="M974.1111,377.8477c1.6859,9.8724-4.912,17.8598-14.6966,17.7764c-9.8284-0.1001-18.8829-8.2419-20.285-18.119
				c-1.3741-9.7898,5.187-17.5682,14.7168-17.4786C963.3335,360.1313,972.4248,368.0641,974.1111,377.8477z"/>
			<path d="M1137.6392,380.5144c3.0681,9.819-1.4871,17.7112-10.092,17.5448c-8.6876-0.1841-17.9375-8.3709-20.7605-18.1992
				c-2.7906-9.763,1.6974-17.4308,10.1263-17.2519C1125.2616,362.8007,1134.5786,370.7632,1137.6392,380.5144z"/>
			<path d="M1273.5607,384.5774c4.1799,9.7405,1.9653,17.5313-4.8351,17.2978c-6.9126-0.2532-15.6517-8.4529-19.6447-18.2068
				c-3.9659-9.7139-1.8412-17.2651,4.8734-17.0126C1260.5594,366.9193,1269.3884,374.8798,1273.5607,384.5774z"/>
			<path d="M1372.5668,389.6926c4.9453,9.6455,5.1548,17.3331,0.5977,17.0536c-4.6874-0.303-12.2887-8.4794-17.1168-18.1418
				c-4.8115-9.6433-5.1287-17.0843-0.566-16.7783C1359.9163,372.1381,1367.6251,380.0683,1372.5668,389.6926z"/>
			<path d="M1428.9294,395.4525c5.3311,9.542,7.8503,17.1276,5.7651,16.8281c-2.2191-0.3336-8.1892-8.4496-13.4764-18.0112
				c-5.281-9.5557-7.9207-16.9038-5.7484-16.5641C1417.5084,378.0376,1423.5988,385.917,1428.9294,395.4525z"/>
			<path d="M1440.5925,401.4321c5.3414,9.4372,9.9127,16.9806,10.3099,16.6338c0.3114-0.2926-3.7159-8.3692-9.0837-17.8274
				c-5.3683-9.4573-10.0104-16.6848-10.3114-16.3817C1431.1558,384.2369,1435.2516,391.9946,1440.5925,401.4321z"/>
		</g>
		<g>
			<path d="M38.0178,971.8727c2.7779,10.5207,5.4451,18.78,5.8291,18.6083c0.4973-0.2439-1.4442-8.8077-4.2055-19.2943
				c-2.762-10.4863-5.3006-18.9263-5.8263-18.7389C33.4263,952.6024,35.2406,961.3516,38.0178,971.8727z"/>
			<path d="M59.6487,975.3106c2.7415,10.6915,3.1809,19.1226,0.8156,18.9191c-2.213-0.2065-6.3803-8.9444-9.1477-19.6015
				c-2.7648-10.6612-3.0666-19.2139-0.8313-19.0566C52.8728,955.7571,56.9026,964.6155,59.6487,975.3106z"/>
			<path d="M131.1322,978.5847c2.5057,10.8512,0.5529,19.4246-4.5159,19.2411c-4.9235-0.1951-11.1185-9.0519-13.6949-19.8709
				c-2.5714-10.8322-0.5005-19.5323,4.4851-19.3853C122.5386,958.7387,128.6157,967.7217,131.1322,978.5847z"/>
			<path d="M249.6692,981.4464c2.071,10.988-2.2388,19.7037-9.7582,19.5526c-7.3944-0.166-15.2522-9.1195-17.4366-20.0803
				c-2.1774-10.9863,2.225-19.825,9.7204-19.7026C239.8164,961.3586,247.5815,970.4347,249.6692,981.4464z"/>
			<path d="M408.1989,983.6601c1.4599,11.0917-4.9626,19.9362-14.4449,19.8301c-9.3903-0.1228-18.3698-9.139-19.9789-20.2109
				c-1.5993-11.1104,4.8868-20.0707,14.4108-19.9847C397.803,963.3998,406.7188,972.5317,408.1989,983.6601z"/>
			<path d="M595.5629,985.0314c0.7177,11.1546-7.3649,20.1021-18.1125,20.051c-10.6987-0.0688-20.1214-9.1064-21.0123-20.2506
				c-0.8773-11.1924,7.2379-20.2493,18.0923-20.2084C585.4345,964.6828,594.8246,973.8297,595.5629,985.0314z"/>
			<path d="M797.3785,985.4346c-0.0909,11.1725-9.2086,20.1866-20.3785,20.1956c-11.1699-0.009-20.2876-9.0231-20.3784-20.1956
				c-0.073-11.2239,9.0447-20.3448,20.3784-20.3539C788.3337,965.0898,797.4514,974.2106,797.3785,985.4346z"/>
			<path d="M997.562,984.8318c-0.8909,11.1442-10.3136,20.1818-21.0123,20.2506c-10.7477,0.0511-18.8303-8.8964-18.1126-20.051
				c0.7383-11.2018,10.1284-20.3486,21.0325-20.408C990.3241,964.5825,998.4392,973.6394,997.562,984.8318z"/>
			<path d="M1180.225,983.2794c-1.6091,11.0718-10.5887,20.0881-19.979,20.2109c-9.4823,0.1061-15.9048-8.7385-14.4448-19.8301
				c1.4801-11.1284,10.3959-20.2603,20.0131-20.3654C1175.3381,963.2086,1181.8242,972.169,1180.225,983.2794z"/>
			<path d="M1331.5256,980.9187c-2.1844,10.9608-10.0422,19.9142-17.4366,20.0803c-7.5194,0.1511-11.8292-8.5646-9.7582-19.5526
				c2.0876-11.0117,9.8528-20.0878,17.4745-20.2302C1329.3007,961.0938,1333.7031,969.9324,1331.5256,980.9187z"/>
			<path d="M1441.0785,977.9549c-2.5763,10.819-8.7714,19.6758-13.6948,19.8709c-5.0687,0.1834-7.0216-8.39-4.5159-19.2411
				c2.5165-10.863,8.5936-19.8459,13.7256-20.0151C1441.5791,958.4225,1443.6499,967.1227,1441.0785,977.9549z"/>
			<path d="M1502.6835,974.6282c-2.7675,10.6571-6.9347,19.395-9.1477,19.6015c-2.3654,0.2034-1.9259-8.2276,0.8156-18.9191
				c2.7461-10.6951,6.7759-19.5535,9.1635-19.739C1505.7501,955.4144,1505.4482,963.967,1502.6835,974.6282z"/>
			<path d="M1514.3586,971.1867c-2.7612,10.4866-4.7028,19.0504-4.2054,19.2943c0.3839,0.1718,3.0511-8.0876,5.8291-18.6083
				c2.7771-10.5211,4.5913-19.2703,4.2026-19.4249C1519.6593,952.2604,1517.1206,960.7004,1514.3586,971.1867z"/>
		</g>
		<g>
			<path d="M38.0178,582.1273c-2.7771,10.5211-4.5914,19.2703-4.2027,19.4249c0.5257,0.1874,3.0643-8.2526,5.8263-18.7389
				c2.7613-10.4866,4.7028-19.0504,4.2055-19.2943C43.4628,563.3473,40.7956,571.6066,38.0178,582.1273z"/>
			<path d="M59.6487,578.6894c-2.746,10.6951-6.7759,19.5535-9.1634,19.739c-2.2354,0.1572-1.9335-8.3955,0.8313-19.0567
				c2.7674-10.6571,6.9347-19.3949,9.1477-19.6014C62.8296,559.5668,62.3902,567.9978,59.6487,578.6894z"/>
			<path d="M131.1322,575.4153c-2.5165,10.8629-8.5936,19.8459-13.7256,20.0151c-4.9856,0.147-7.0565-8.5531-4.4851-19.3853
				c2.5763-10.819,8.7714-19.6758,13.6949-19.8709C131.6851,555.9908,133.6379,564.5641,131.1322,575.4153z"/>
			<path d="M249.6692,572.5536c-2.0877,11.0117-9.8528,20.0877-17.4745,20.2302c-7.4953,0.1224-11.8978-8.7162-9.7204-19.7026
				c2.1844-10.9608,10.0422-19.9142,17.4366-20.0803C247.4304,552.8499,251.7402,561.5656,249.6692,572.5536z"/>
			<path d="M408.1989,570.3399c-1.4801,11.1284-10.3959,20.2603-20.0131,20.3654c-9.5239,0.0861-16.0101-8.8743-14.4108-19.9847
				c1.6091-11.0718,10.5887-20.0881,19.9789-20.2109C403.2364,550.4037,409.6588,559.2482,408.1989,570.3399z"/>
			<path d="M595.5629,568.9686c-0.7383,11.2018-10.1284,20.3486-21.0325,20.408c-10.8545,0.0408-18.9696-9.016-18.0923-20.2084
				c0.8909-11.1442,10.3136-20.1818,21.0123-20.2506C588.198,548.8665,596.2806,557.814,595.5629,568.9686z"/>
			<path d="M797.3785,568.5654c0.0729,11.2239-9.0447,20.3448-20.3785,20.3539c-11.3337-0.0092-20.4514-9.13-20.3784-20.3539
				c0.0908-11.1725,9.2086-20.1866,20.3784-20.1956C788.1699,548.3788,797.2876,557.3929,797.3785,568.5654z"/>
			<path d="M997.562,569.1682c0.8772,11.1924-7.2379,20.2492-18.0924,20.2084c-10.9041-0.0594-20.2943-9.2062-21.0325-20.408
				c-0.7177-11.1546,7.3649-20.1021,18.1126-20.051C987.2484,548.9865,996.6711,558.024,997.562,569.1682z"/>
			<path d="M1180.225,570.7206c1.5992,11.1104-4.8868,20.0707-14.4108,19.9847c-9.6172-0.1051-18.533-9.237-20.0131-20.3654
				c-1.46-11.0917,4.9625-19.9362,14.4448-19.8301C1169.6362,550.6326,1178.6158,559.6488,1180.225,570.7206z"/>
			<path d="M1331.5256,573.0813c2.1775,10.9863-2.225,19.825-9.7203,19.7026c-7.6217-0.1425-15.3868-9.2186-17.4745-20.2302
				c-2.071-10.988,2.2388-19.7037,9.7582-19.5527C1321.4834,553.1671,1329.3412,562.1205,1331.5256,573.0813z"/>
			<path d="M1441.0785,576.0451c2.5714,10.8322,0.5006,19.5323-4.4851,19.3853c-5.132-0.1691-11.2091-9.1522-13.7256-20.0151
				c-2.5057-10.8512-0.5529-19.4246,4.5159-19.2411C1432.3071,556.3693,1438.5022,565.2261,1441.0785,576.0451z"/>
			<path d="M1502.6835,579.3717c2.7648,10.6612,3.0667,19.2139,0.8313,19.0567c-2.3876-0.1855-6.4174-9.0439-9.1635-19.739
				c-2.7415-10.6916-3.1809-19.1226-0.8156-18.9191C1495.7488,559.9768,1499.916,568.7146,1502.6835,579.3717z"/>
			<path d="M1514.3586,582.8133c2.762,10.4863,5.3007,18.9263,5.8263,18.7389c0.3887-0.1545-1.4255-8.9037-4.2026-19.4249
				c-2.778-10.5207-5.4452-18.78-5.8291-18.6083C1509.6559,563.7629,1511.5974,572.3267,1514.3586,582.8133z"/>
		</g>
		<g>
			<path d="M12.729,777c0.0004,10.8836,0.4747,19.6779,0.8871,19.6686C14.1812,796.6355,14.4996,787.844,14.5,777
				c-0.0004-10.844-0.3188-19.6356-0.8839-19.6686C13.2037,757.3221,12.7294,766.1164,12.729,777z"/>
			<path d="M34.652,777c-0.0019,11.0823-1.8388,20.0396-4.2738,20.0284c-2.2762-0.0277-4.2567-8.9856-4.2586-20.0284
				c0.0019-11.0428,1.9824-20.0007,4.2586-20.0285C32.8132,756.9604,34.65,765.9177,34.652,777z"/>
			<path d="M108.2417,777c-0.0042,11.2717-4.1447,20.3834-9.4052,20.3742c-5.1088-0.027-9.3706-9.139-9.3748-20.3742
				c0.0042-11.2352,4.266-20.3472,9.3748-20.3742C104.0969,756.6166,108.2374,765.7283,108.2417,777z"/>
			<path d="M230.7049,777c-0.0063,11.4373-6.2501,20.6857-14.0786,20.6796c-7.6976-0.0243-14.0347-9.2729-14.0409-20.6796
				c0.0063-11.4068,6.3434-20.6553,14.0409-20.6796C224.4548,756.3143,230.6986,765.5627,230.7049,777z"/>
			<path d="M394.787,777c-0.008,11.5656-7.9513,20.9214-17.8409,20.9197c-9.793-0.0203-17.7989-9.3762-17.8069-20.9197
				c0.008-11.5435,8.0139-20.8994,17.8069-20.9197C386.8357,756.0786,394.779,765.4344,394.787,777z"/>
			<path d="M588.9194,777c-0.0091,11.6451-9.0646,21.0696-20.2849,21.0733c-11.1688-0.0152-20.2556-9.4398-20.2646-21.0733
				c0.009-11.6335,9.0958-21.0581,20.2646-21.0733C579.8547,755.9304,588.9103,765.3549,588.9194,777z"/>
			<path d="M798.1262,777c-0.0095,11.6685-9.4615,21.1167-21.1262,21.1261c-11.6646-0.0094-21.1166-9.4576-21.1261-21.1261
				c0.0095-11.6685,9.4615-21.1167,21.1261-21.1262C788.6646,755.8833,798.1167,765.3315,798.1262,777z"/>
			<path d="M1005.6301,777c-0.009,11.6335-9.0958,21.0581-20.2646,21.0733c-11.2202-0.0037-20.2758-9.4282-20.2849-21.0733
				c0.0091-11.6451,9.0647-21.0696,20.2849-21.0733C996.5343,755.9419,1005.6211,765.3665,1005.6301,777z"/>
			<path d="M1194.8608,777c-0.0081,11.5435-8.0139,20.8994-17.8069,20.9197c-9.8896,0.0016-17.8329-9.3542-17.8409-20.9197
				c0.0081-11.5656,7.9513-20.9214,17.8409-20.9197C1186.8469,756.1006,1194.8528,765.4565,1194.8608,777z"/>
			<path d="M1351.4147,777c-0.0063,11.4067-6.3434,20.6553-14.041,20.6796c-7.8284,0.0061-14.0723-9.2423-14.0785-20.6796
				c0.0062-11.4373,6.2501-20.6857,14.0785-20.6796C1345.0713,756.3447,1351.4083,765.5932,1351.4147,777z"/>
			<path d="M1464.5383,777c-0.0042,11.2352-4.266,20.3472-9.3748,20.3742c-5.2605,0.0092-9.401-9.1025-9.4053-20.3742
				c0.0043-11.2717,4.1448-20.3834,9.4053-20.3742C1460.2723,756.6528,1464.5342,765.7648,1464.5383,777z"/>
			<path d="M1527.8805,777c-0.002,11.0428-1.9824,20.0007-4.2587,20.0284c-2.4349,0.0111-4.2719-8.9462-4.2738-20.0284
				c0.002-11.0823,1.8389-20.0396,4.2738-20.0285C1525.8981,756.9993,1527.8785,765.9572,1527.8805,777z"/>
			<path d="M1539.5,777c0.0004,10.844,0.3188,19.6355,0.8839,19.6686c0.4124,0.0093,0.8867-8.785,0.8871-19.6686
				c-0.0004-10.8836-0.4747-19.6779-0.8871-19.6686C1539.8188,757.3644,1539.5004,766.156,1539.5,777z"/>
		</g>
	</g>
</g>
</svg>
